<svg width="24" height="24" viewBox="0 0 24 24" fill="none" xmlns="http://www.w3.org/2000/svg">
<g clip-path="url(#clip0)">
<path d="M16.749 0C15.4695 0.088131 13.974 0.903717 13.1025 1.96577C12.3075 2.92924 11.6535 4.36025 11.9085 5.75092C13.3065 5.79424 14.751 4.95924 15.588 3.87926C16.371 2.87397 16.9635 1.45192 16.749 0Z" fill="#3D3D3D"/>
<path d="M21.8053 8.01841C20.5768 6.48433 18.8503 5.59406 17.2198 5.59406C15.0674 5.59406 14.1569 6.62026 12.6614 6.62026C11.1194 6.62026 9.94789 5.59704 8.0864 5.59704C6.25791 5.59704 4.31092 6.70989 3.07643 8.61292C1.34094 11.2927 1.63794 16.3311 4.45042 20.6227C5.45692 22.1582 6.80091 23.885 8.5589 23.8999C10.1234 23.9149 10.5644 22.9006 12.6839 22.8902C14.8034 22.8782 15.2054 23.9134 16.7669 23.897C18.5263 23.8835 19.9438 21.97 20.9503 20.4345C21.6718 19.3336 21.9403 18.7794 22.4998 17.5366C18.4303 15.9935 17.7778 10.2307 21.8053 8.01841Z" fill="#3D3D3D"/>
</g>
<defs>
<clipPath id="clip0">
<rect width="24" height="23.9001" fill="white"/>
</clipPath>
</defs>
</svg>
