<svg width="25" height="24" viewBox="0 0 25 24" fill="none" xmlns="http://www.w3.org/2000/svg">
<path d="M12.5001 0C5.87268 0 0.5 5.37268 0.5 12.0001C0.5 17.9441 4.82626 22.8667 10.4987 23.8199V14.5036H7.60393V11.1511H10.4987V8.67901C10.4987 5.81072 12.2506 4.24767 14.8096 4.24767C16.0353 4.24767 17.0886 4.339 17.3944 4.37923V7.37735L15.6194 7.37821C14.228 7.37821 13.9598 8.03927 13.9598 9.00968V11.1493H17.2798L16.8468 14.5019H13.9598V23.9001C19.897 23.1775 24.5 18.1294 24.5 11.9966C24.5 5.37268 19.1273 0 12.5001 0Z" fill="white"/>
</svg>
