<svg width="25" height="24" viewBox="0 0 25 24" fill="none" xmlns="http://www.w3.org/2000/svg">
<path d="M6.125 11.9501C6.125 10.766 6.45261 9.65674 7.02177 8.70695V4.6781H2.97608C1.37038 6.75479 0.5 9.28573 0.5 11.9501C0.5 14.6145 1.37038 17.1454 2.97608 19.2221H7.02177V15.1933C6.45261 14.2435 6.125 13.1342 6.125 11.9501V11.9501Z" fill="#F2BE42"/>
<path d="M12.5 18.2985L9.6875 21.0993L12.5 23.9001C15.1756 23.9001 17.717 23.0334 19.8024 21.4343V17.4098H15.761C14.7989 17.9786 13.6804 18.2985 12.5 18.2985V18.2985Z" fill="#58A55C"/>
<path d="M7.02176 15.1932L2.97607 19.2221C3.29398 19.6332 3.64015 20.027 4.01473 20.4C6.28123 22.6571 9.29468 23.9001 12.5 23.9001V18.2985C10.1739 18.2985 8.13514 17.0512 7.02176 15.1932Z" fill="#58A55C"/>
<path d="M24.5 11.95C24.5 11.223 24.4339 10.4946 24.3035 9.78517L24.198 9.21106H12.5V14.8126H18.1931C17.6402 15.9078 16.7902 16.8013 15.761 17.4098L19.8024 21.4344C20.2152 21.1178 20.6106 20.7731 20.9853 20.4C23.2518 18.1429 24.5 15.142 24.5 11.95V11.95Z" fill="#5086EC"/>
<path d="M17.0078 7.46098L17.505 7.95607L21.4825 3.99519L20.9853 3.5001C18.7188 1.24304 15.7054 0 12.5 0L9.6875 2.80079L12.5 5.60158C14.2028 5.60158 15.8037 6.26191 17.0078 7.46098Z" fill="#D95140"/>
<path d="M12.5 5.60158V0C9.29467 0 6.28122 1.24304 4.01467 3.50006C3.64009 3.87307 3.29392 4.26682 2.97601 4.67802L7.0217 8.70687C8.13512 6.84887 10.1739 5.60158 12.5 5.60158V5.60158Z" fill="#D95140"/>
</svg>
