<svg width="31" height="42" viewBox="0 0 31 42" fill="none" xmlns="http://www.w3.org/2000/svg">
<path d="M9 16.48V9C9 6.24 11.24 4 14 4C16.76 4 19 6.24 19 9V16.48C21.42 14.86 23 12.12 23 9C23 4.02 18.98 0 14 0C9.02 0 5 4.02 5 9C5 12.12 6.58 14.86 9 16.48ZM28.68 25.74L19.6 21.22C19.26 21.08 18.9 21 18.52 21H17V9C17 7.34 15.66 6 14 6C12.34 6 11 7.34 11 9V30.48C3.8 28.96 3.92 28.98 3.66 28.98C3.04 28.98 2.48 29.24 2.08 29.64L0.5 31.24L10.38 41.12C10.92 41.66 11.68 42 12.5 42H26.08C27.58 42 28.74 40.9 28.96 39.44L30.46 28.9C30.48 28.76 30.5 28.62 30.5 28.5C30.5 27.26 29.74 26.18 28.68 25.74Z" fill="#424242"/>
</svg>
