<svg width="323" height="56" viewBox="0 0 323 56" fill="none" xmlns="http://www.w3.org/2000/svg">
<path d="M31.392 55.224C27.648 55.224 25.776 53.616 25.776 50.4C25.776 49.344 25.92 48.144 26.208 46.8C26.544 45.408 27 43.632 27.576 41.472C28.248 39.216 28.752 37.296 29.088 35.712C29.424 34.128 29.592 32.712 29.592 31.464C29.592 28.2 28.152 26.568 25.272 26.568C24.504 26.568 23.712 26.664 22.896 26.856L17.136 54H6.768L16.56 8.208L27.216 6.768L23.688 23.4H24.264C26.136 23.4 27.864 22.752 29.448 21.456C31.032 20.16 32.256 18.552 33.12 16.632C34.032 14.664 34.488 12.744 34.488 10.872C34.488 8.664 33.816 6.864 32.472 5.472C31.176 4.032 29.208 3.312 26.568 3.312C22.68 3.312 19.272 4.008 16.344 5.4C13.416 6.792 11.136 8.808 9.504 11.448C7.92 14.088 7.128 17.208 7.128 20.808C7.128 22.584 7.296 23.832 7.632 24.552C7.968 25.224 8.136 25.608 8.136 25.704C5.544 25.704 3.6 25.176 2.304 24.12C1.056 23.016 0.432 21.216 0.432 18.72C0.432 15.648 1.68 12.672 4.176 9.792C6.72 6.864 9.96 4.512 13.896 2.736C17.832 0.911997 21.768 -4.29153e-06 25.704 -4.29153e-06C29.304 -4.29153e-06 32.328 0.527996 34.776 1.584C37.224 2.64 39.048 4.056 40.248 5.832C41.448 7.56 42.048 9.456 42.048 11.52C42.048 13.776 41.352 16.032 39.96 18.288C38.568 20.544 36.672 22.392 34.272 23.832C36.096 24.36 37.368 25.248 38.088 26.496C38.856 27.696 39.24 29.208 39.24 31.032C39.24 32.424 39.072 33.912 38.736 35.496C38.4 37.032 37.92 38.952 37.296 41.256C36.912 42.744 36.552 44.208 36.216 45.648C35.88 47.088 35.712 48.288 35.712 49.248C35.712 50.352 35.952 51.336 36.432 52.2C36.96 53.064 37.656 53.664 38.52 54C35.592 54.816 33.216 55.224 31.392 55.224ZM53.5382 54.432C49.9862 54.432 47.2262 53.52 45.2582 51.696C43.2902 49.824 42.3062 46.92 42.3062 42.984C42.3062 39.672 42.9542 36.024 44.2502 32.04C45.5462 28.056 47.6582 24.624 50.5862 21.744C53.5142 18.816 57.2342 17.352 61.7462 17.352C67.0262 17.352 69.6662 19.656 69.6662 24.264C69.6662 26.952 68.8982 29.424 67.3622 31.68C65.8262 33.936 63.7862 35.76 61.2422 37.152C58.6982 38.496 55.9862 39.264 53.1062 39.456C53.0102 40.896 52.9622 41.856 52.9622 42.336C52.9622 44.688 53.3702 46.296 54.1862 47.16C55.0022 47.976 56.3222 48.384 58.1462 48.384C60.7382 48.384 62.9462 47.784 64.7702 46.584C66.6422 45.384 68.6822 43.56 70.8902 41.112H73.3382C68.0102 49.992 61.4102 54.432 53.5382 54.432ZM53.6822 36C55.4582 35.904 57.1382 35.28 58.7222 34.128C60.3542 32.976 61.6502 31.512 62.6102 29.736C63.6182 27.96 64.1222 26.088 64.1222 24.12C64.1222 22.152 63.5222 21.168 62.3222 21.168C60.5942 21.168 58.8902 22.68 57.2102 25.704C55.5782 28.728 54.4022 32.16 53.6822 36ZM96.867 54.432C93.939 54.432 91.779 53.664 90.387 52.128C89.043 50.544 88.371 48.6 88.371 46.296C88.371 45.288 88.491 44.16 88.731 42.912C88.971 41.616 89.211 40.368 89.451 39.168C89.739 37.968 89.931 37.2 90.027 36.864C90.411 35.184 90.771 33.528 91.107 31.896C91.443 30.264 91.611 28.944 91.611 27.936C91.611 25.488 90.747 24.264 89.019 24.264C87.771 24.264 86.667 24.888 85.707 26.136C84.747 27.336 83.979 28.92 83.403 30.888L78.507 54H68.139L75.771 18H86.139L85.347 21.744C87.747 19.056 90.555 17.712 93.771 17.712C96.219 17.712 98.163 18.384 99.603 19.728C101.043 21.072 101.763 23.112 101.763 25.848C101.763 27.24 101.595 28.8 101.259 30.528C100.923 32.208 100.443 34.272 99.819 36.72C99.435 38.208 99.075 39.672 98.739 41.112C98.451 42.504 98.307 43.608 98.307 44.424C98.307 45.384 98.523 46.128 98.955 46.656C99.387 47.184 100.131 47.448 101.187 47.448C102.627 47.448 103.779 46.944 104.643 45.936C105.507 44.88 106.371 43.272 107.235 41.112H110.259C108.483 46.392 106.419 49.944 104.067 51.768C101.763 53.544 99.363 54.432 96.867 54.432ZM115.867 54.432C113.131 54.432 110.851 53.496 109.027 51.624C107.203 49.752 106.291 46.824 106.291 42.84C106.291 39.288 106.987 35.568 108.379 31.68C109.819 27.744 111.931 24.432 114.715 21.744C117.547 19.008 120.907 17.64 124.795 17.64C126.763 17.64 128.227 17.976 129.187 18.648C130.147 19.32 130.627 20.208 130.627 21.312V21.6L134.155 5.04L144.811 3.6L136.531 42.48C136.339 43.2 136.243 43.968 136.243 44.784C136.243 45.744 136.459 46.44 136.891 46.872C137.371 47.256 138.139 47.448 139.195 47.448C140.539 47.448 141.691 46.872 142.651 45.72C143.659 44.568 144.451 43.032 145.027 41.112H148.051C145.123 49.704 140.299 54 133.579 54C131.611 54 130.003 53.472 128.755 52.416C127.555 51.36 126.811 49.824 126.523 47.808C125.275 49.728 123.763 51.312 121.987 52.56C120.259 53.808 118.219 54.432 115.867 54.432ZM120.547 47.448C121.699 47.448 122.851 46.92 124.003 45.864C125.203 44.808 126.019 43.344 126.451 41.472V41.112L129.979 24.624C129.547 22.944 128.563 22.104 127.027 22.104C125.107 22.104 123.379 23.232 121.843 25.488C120.307 27.696 119.107 30.384 118.243 33.552C117.379 36.672 116.947 39.432 116.947 41.832C116.947 44.232 117.283 45.768 117.955 46.44C118.675 47.112 119.539 47.448 120.547 47.448ZM154.775 54.432C151.271 54.432 148.535 53.52 146.567 51.696C144.599 49.824 143.615 46.92 143.615 42.984C143.615 39.672 144.263 36.024 145.559 32.04C146.855 28.056 148.967 24.624 151.895 21.744C154.823 18.816 158.543 17.352 163.055 17.352C168.335 17.352 170.975 19.656 170.975 24.264C170.975 26.952 170.207 29.424 168.671 31.68C167.135 33.936 165.095 35.76 162.551 37.152C160.007 38.496 157.295 39.264 154.415 39.456C154.319 40.512 154.271 41.232 154.271 41.616C154.271 45.6 155.759 47.592 158.735 47.592C160.079 47.592 161.519 47.232 163.055 46.512C164.591 45.792 165.983 44.88 167.231 43.776C165.935 50.88 161.783 54.432 154.775 54.432ZM189.335 21.888H185.303C183.959 21.888 182.951 21.96 182.279 22.104C181.655 22.248 181.343 22.56 181.343 23.04C181.343 23.136 181.463 23.256 181.703 23.4C181.991 23.496 182.135 23.904 182.135 24.624C182.135 25.872 181.751 26.832 180.983 27.504C180.215 28.128 179.303 28.44 178.247 28.44C177.335 28.44 176.543 28.176 175.871 27.648C175.247 27.072 174.935 26.28 174.935 25.272C174.935 24.264 175.271 23.184 175.943 22.032C176.663 20.88 177.647 19.92 178.895 19.152C180.191 18.384 181.655 18 183.287 18H201.791L184.151 48.456C184.439 48.456 184.967 48.504 185.735 48.6C187.367 48.792 188.663 48.888 189.623 48.888C191.687 48.888 192.815 48.408 193.007 47.448C192.575 47.4 192.239 47.256 191.999 47.016C191.759 46.728 191.639 46.368 191.639 45.936C191.639 45.168 191.999 44.472 192.719 43.848C193.439 43.176 194.423 42.84 195.671 42.84C196.727 42.84 197.519 43.152 198.047 43.776C198.575 44.4 198.839 45.24 198.839 46.296C198.839 47.448 198.479 48.624 197.759 49.824C197.039 51.024 196.007 52.032 194.663 52.848C193.319 53.616 191.783 54 190.055 54H170.975L189.335 21.888ZM154.919 36C156.743 35.952 158.447 35.352 160.031 34.2C161.663 33.048 162.959 31.584 163.919 29.808C164.927 27.984 165.431 26.088 165.431 24.12C165.431 22.152 164.831 21.168 163.631 21.168C161.951 21.168 160.271 22.704 158.591 25.776C156.959 28.8 155.735 32.208 154.919 36ZM210.005 54.432C207.221 54.432 205.037 53.736 203.453 52.344C201.917 50.904 201.149 48.768 201.149 45.936C201.149 44.784 201.269 43.632 201.509 42.48L206.693 18H217.061L211.877 42.48C211.637 43.68 211.517 44.544 211.517 45.072C211.517 46.656 212.333 47.448 213.965 47.448C216.173 47.448 218.213 46.056 220.085 43.272C222.005 40.488 223.541 37.176 224.693 33.336C225.845 29.496 226.421 26.184 226.421 23.4C226.325 23.64 226.013 23.832 225.485 23.976C224.957 24.072 224.501 24.12 224.117 24.12C223.301 24.12 222.653 23.736 222.173 22.968C221.741 22.2 221.525 21.36 221.525 20.448C221.525 19.296 221.885 18.36 222.605 17.64C223.373 16.92 224.501 16.56 225.989 16.56C227.573 16.56 228.725 17.16 229.445 18.36C230.165 19.512 230.525 21 230.525 22.824C230.525 27.144 229.781 31.776 228.293 36.72C226.805 41.616 224.525 45.792 221.453 49.248C218.381 52.704 214.565 54.432 210.005 54.432ZM242.121 54.288C238.569 54.288 235.761 53.376 233.697 51.552C231.633 49.728 230.601 46.848 230.601 42.912C230.601 39.648 231.273 36.024 232.617 32.04C233.961 28.056 236.121 24.624 239.097 21.744C242.073 18.816 245.817 17.352 250.329 17.352C256.473 17.352 259.545 21.192 259.545 28.872V28.944C259.689 28.992 259.953 29.016 260.337 29.016C261.921 29.016 263.745 28.608 265.809 27.792C267.873 26.928 269.745 25.896 271.425 24.696L272.073 26.64C270.681 28.128 268.857 29.4 266.601 30.456C264.393 31.464 261.969 32.184 259.329 32.616C258.945 36.984 257.961 40.8 256.377 44.064C254.793 47.328 252.753 49.848 250.257 51.624C247.761 53.4 245.049 54.288 242.121 54.288ZM245.001 47.808C246.153 47.808 247.305 47.16 248.457 45.864C249.609 44.52 250.617 42.72 251.481 40.464C252.345 38.16 252.969 35.616 253.353 32.832C252.057 32.544 251.409 31.536 251.409 29.808C251.409 27.84 252.153 26.544 253.641 25.92C253.545 24.336 253.305 23.256 252.921 22.68C252.537 22.056 251.865 21.744 250.905 21.744C249.321 21.744 247.785 22.896 246.297 25.2C244.809 27.504 243.609 30.264 242.697 33.48C241.785 36.696 241.329 39.528 241.329 41.976C241.329 44.28 241.593 45.84 242.121 46.656C242.649 47.424 243.609 47.808 245.001 47.808ZM270.378 54.432C268.074 54.432 266.202 53.712 264.762 52.272C263.37 50.832 262.674 48.672 262.674 45.792C262.674 44.592 262.866 43.032 263.25 41.112L268.146 18H278.514L273.33 42.48C273.186 43.2 273.114 43.872 273.114 44.496C273.114 46.464 273.834 47.448 275.274 47.448C276.618 47.448 277.77 46.896 278.73 45.792C279.69 44.64 280.458 43.08 281.034 41.112L285.93 18H296.298L291.114 42.48C290.922 43.2 290.826 43.968 290.826 44.784C290.826 45.744 291.042 46.44 291.474 46.872C291.954 47.256 292.722 47.448 293.778 47.448C295.122 47.448 296.274 46.872 297.234 45.72C298.242 44.568 299.034 43.032 299.61 41.112H302.634C300.858 46.296 298.65 49.824 296.01 51.696C293.418 53.52 290.802 54.432 288.162 54.432C286.098 54.432 284.442 53.856 283.194 52.704C281.994 51.552 281.274 49.848 281.034 47.592C279.402 50.232 277.674 52.032 275.85 52.992C274.074 53.952 272.25 54.432 270.378 54.432ZM307.81 54.432C305.506 54.432 303.562 54 301.978 53.136C300.394 52.224 299.218 51.072 298.45 49.68C297.682 48.24 297.298 46.752 297.298 45.216C297.298 43.632 297.682 42.264 298.45 41.112C299.17 39.912 300.058 39.048 301.114 38.52C302.986 35.16 304.618 31.776 306.01 28.368C307.402 24.912 308.722 21.192 309.97 17.208L320.626 15.768C320.866 21.912 321.274 28.56 321.85 35.712C322.09 38.592 322.21 40.68 322.21 41.976C322.21 44.904 321.466 47.304 319.978 49.176C318.49 51.048 316.642 52.392 314.434 53.208C312.274 54.024 310.066 54.432 307.81 54.432ZM305.506 48.744C307.282 48.744 308.77 48.216 309.97 47.16C311.17 46.104 311.77 44.4 311.77 42.048C311.77 40.608 311.626 38.592 311.338 36C310.858 30.528 310.546 26.856 310.402 24.984C309.25 28.776 307.306 33.312 304.57 38.592C305.674 39.168 306.226 40.008 306.226 41.112C306.226 42.024 305.914 42.84 305.29 43.56C304.714 44.28 303.97 44.64 303.058 44.64C302.05 44.64 301.402 44.328 301.114 43.704C301.114 45.432 301.45 46.704 302.122 47.52C302.842 48.336 303.97 48.744 305.506 48.744Z" fill="black"/>
</svg>
